{"title":"Contracted (1920x1080) (5.1) [Phr0stY].mkv","uid":9282678,"size":2865754562,"categoryP":"video","categoryS":"hd___movies","magnet":"?xt=urn:btih:5198230c87705c138efafa681c5c275162107d64&amp;dn=Contracted+%281920x1080%29+%285.1%29+%5BPhr0stY%5D.mkv&amp;tr=udp%3A%2F%2Ftracker.openbittorrent.com%3A80&amp;tr=udp%3A%2F%2Fopen.demonii.com%3A1337&amp;tr=udp%3A%2F%2Ftracker.coppersurfer.tk%3A6969&amp;tr=udp%3A%2F%2Fexodus.desync.com%3A6969","seeders":1,"leechers":0,"uploader":"frostyon420","files":-1,"time":1385959981,"description":"Please Seed :) SUPPORT THE SMALL GUYS TORRENTS, ALWAYS HD never RE-ENCODED! over 400 torrents and counting;)\n\nJoin me on the NEW Superbay for updates on my torrents or to let me know if I need to fix something :)\n\nALSO!!!!! if u have a show request I might consider uploading it, if I can access the content online.\n &lt;a href=&quot;\nhttps://forum.suprbay.org/showthread.php?tid=369&quot; rel=&quot;nofollow&quot; target=&quot;_NEW&quot;&gt;\nhttps://forum.suprbay.org/showthread.php?tid=369&lt;/a&gt;\n\nOR\n\nsign up and Rate me as an uploader ;)\n &lt;a href=&quot;\nhttp://bayimg.com/dacNAaaFJ&quot; rel=&quot;nofollow&quot; target=&quot;_NEW&quot;&gt;\nhttp://bayimg.com/dacNAaaFJ&lt;/a&gt;\n\nADD my RSS feed to your torrent client for my latest torrents &lt;a href=&quot;\nhttp://rss.thepiratebay.se/user/178e8d96586bbd0dcb5c2729df9a5c4d&quot; rel=&quot;nofollow&quot; target=&quot;_NEW&quot;&gt;\nhttp://rss.thepiratebay.se/user/178e8d96586bbd0dcb5c2729df9a5c4d&lt;/a&gt;\n\nNOW Seedbox supported!!! :)\n\nIF YOU HAVE ANY HOT NEW ITUNES CONTENT AND YOU WANT TO CONTRIBUTE TO TPB PLEASE PM ME ON SUPERBAY... REMOVE YOUR DRM!\n\n\n[Itunes-rip]\n\nComplete name                            : C:UsersPhr0stYDesktopContracted (1920x1080) (5.1) [Phr0stY].mkv\nFormat                                   : Matroska\nFormat version                           : Version 4 / Version 2\nFile size                                : 2.67 GiB\nDuration                                 : 1h 24mn\nOverall bit rate                         : 4 541 Kbps\nEncoded date                             : UTC 2013-12-02 03:43:25\nWriting application                      : mkvmerge v6.5.0 ('Isn't she lovely') built on Oct 20 2013 12:50:05\nWriting library                          : libebml v1.3.0 + libmatroska v1.4.1\n\nVideo\nID                                       : 1\nFormat                                   : AVC\nFormat/Info                              : Advanced Video Codec\nFormat profile                           : &lt;a class=&quot;__cf_email__&quot; href=&quot;/cdn-cgi/l/email-protection&quot; data-cfemail=&quot;a7efcec0cfe7eb938997&quot;&gt;[email&amp;#160;protected]&lt;/a&gt;&lt;script cf-hash='f9e31' type=&quot;text/javascript&quot;&gt;\n/* &lt;![CDATA[ */!function(){try{var t=&quot;currentScript&quot;in document?document.currentScript:function(){for(var t=document.getElementsByTagName(&quot;script&quot;),e=t.length;e--;)if(t[e].getAttribute(&quot;cf-hash&quot;))return t[e]}();if(t&amp;&amp;t.previousSibling){var e,r,n,i,c=t.previousSibling,a=c.getAttribute(&quot;data-cfemail&quot;);if(a){for(e=&quot;&quot;,r=parseInt(a.substr(0,2),16),n=2;a.length-n;n+=2)i=parseInt(a.substr(n,2),16)^r,e+=String.fromCharCode(i);e=document.createTextNode(e),c.parentNode.replaceChild(e,c)}}}catch(u){}}();/* ]]&gt; */&lt;/script&gt;\nFormat settings, CABAC                   : Yes\nFormat settings, ReFrames                : 5 frames\nCodec ID                                 : V_MPEG4/ISO/AVC\nDuration                                 : 1h 24mn\nBit rate                                 : 4 066 Kbps\nWidth                                    : 1 920 pixels\nHeight                                   : 810 pixels\nDisplay aspect ratio                     : 2.40:1\nFrame rate mode                          : Constant\nFrame rate                               : 23.976 fps\nColor space                              : YUV\nChroma subsampling                       : 4:2:0\nBit depth                                : 8 bits\nScan type                                : Progressive\nBits/(Pixel*Frame)                       : 0.109\nStream size                              : 2.39 GiB (90%)\nLanguage                                 : English\nDefault                                  : Yes\nForced                                   : No\nColor primaries                          : BT.709\nTransfer characteristics                 : BT.709\nMatrix coefficients                      : BT.709\n\nAudio\nID                                       : 2\nFormat                                   : AC-3\nFormat/Info                              : Audio Coding 3\nMode extension                           : CM (complete main)\nFormat settings, Endianness              : Big\nCodec ID                                 : A_AC3\nDuration                                 : 1h 24mn\nBit rate mode                            : Constant\nBit rate                                 : 384 Kbps\nChannel count                            : 6 channels\nChannel positions                        : Front: L C R, Side: L R, LFE\nSampling rate                            : 48.0 KHz\nBit depth                                : 16 bits\nCompression mode                         : Lossy\nStream size                              : 231 MiB (8%)\nLanguage                                 : English\nDefault                                  : Yes\nForced                                   : No\n\nMenu\n00:00:00.000                             : en:Chapter 1\n00:12:33.000                             : en:Chapter 2\n00:19:22.000                             : en:Chapter 3\n00:34:42.000                             : en:Chapter 4\n00:44:23.000                             : en:Chapter 5\n00:55:28.000                             : en:Chapter 6\n01:09:23.000                             : en:Chapter 7\n01:19:09.000                             : en:Chapter 8\n\n","torrent":{"xt":"urn:btih:5198230c87705c138efafa681c5c275162107d64","amp;dn":"Contracted+%281920x1080%29+%285.1%29+%5BPhr0stY%5D.mkv","amp;tr":["udp%3A%2F%2Ftracker.openbittorrent.com%3A80","udp%3A%2F%2Fopen.demonii.com%3A1337","udp%3A%2F%2Ftracker.coppersurfer.tk%3A6969","udp%3A%2F%2Fexodus.desync.com%3A6969"],"infoHash":"5198230c87705c138efafa681c5c275162107d64","infoHashBuffer":{"type":"Buffer","data":[81,152,35,12,135,112,92,19,142,250,250,104,28,92,39,81,98,16,125,100]},"announce":[],"urlList":[]}}